<?xml version="1.0" encoding="UTF-8"?>
<!DOCTYPE svg PUBLIC "-//W3C//DTD SVG 1.1//EN" "http://www.w3.org/Graphics/SVG/1.1/DTD/svg11.dtd">
<!-- Creator: CorelDRAW X5 -->
<svg xmlns="http://www.w3.org/2000/svg" xml:space="preserve" width="31.4476mm" height="31.4476mm" style="shape-rendering:geometricPrecision; text-rendering:geometricPrecision; image-rendering:optimizeQuality; fill-rule:evenodd; clip-rule:evenodd"
viewBox="0 0 3145 3145"
 xmlns:xlink="http://www.w3.org/1999/xlink"
 xmlns:svg="http://www.w3.org/2000/svg">
 <defs>
  <style type="text/css">
   <![CDATA[
    .fil3 {fill:#00285D}
    .fil4 {fill:#97C1E6}
    .fil10 {fill:#D4A11D}
    .fil9 {fill:#FFC657}
    .fil5 {fill:white}
    .fil0 {fill:#00285D;fill-rule:nonzero}
    .fil2 {fill:#6BACDF;fill-rule:nonzero}
    .fil8 {fill:#D4A11D;fill-rule:nonzero}
    .fil7 {fill:#ED3123;fill-rule:nonzero}
    .fil6 {fill:#FFC657;fill-rule:nonzero}
    .fil1 {fill:white;fill-rule:nonzero}
   ]]>
  </style>
 </defs>
 <g id="Layer_x0020_1">
  <metadata id="CorelCorpID_0Corel-Layer"/>
 </g>
 <g id="__x0023_Layer_x0020_1">
  <metadata id="CorelCorpID_1Corel-Layer"/>
  <path class="fil0" d="M1572 0c-867,0 -1572,706 -1572,1572 0,867 706,1572 1572,1572 867,0 1572,-706 1572,-1572 -1,-867 -706,-1572 -1572,-1572z"/>
  <path class="fil1" d="M2980 1572c0,-778 -630,-1408 -1409,-1408 -778,0 -1409,630 -1409,1408 0,778 631,1409 1409,1409 779,-1 1409,-631 1409,-1409z"/>
  <path class="fil2" d="M2469 1572c0,-495 -402,-897 -897,-897 -495,0 -897,402 -897,897 0,495 402,897 897,897 495,0 897,-402 897,-897z"/>
  <path class="fil0" d="M1572 2540c-534,0 -967,-435 -967,-968 0,-534 434,-967 967,-967 534,0 968,434 968,967 -1,534 -435,968 -968,968zm0 -1881l0 0c-504,0 -914,410 -914,914 0,504 410,914 914,914 504,0 914,-410 914,-914 0,-504 -410,-914 -914,-914z"/>
  <path class="fil2" d="M1572 3080c-831,0 -1508,-676 -1508,-1508 0,-831 676,-1508 1508,-1508 831,0 1508,676 1508,1508 -1,831 -676,1508 -1508,1508zm0 -2984l0 0c-814,0 -1475,662 -1475,1476 0,813 662,1475 1475,1475 813,0 1475,-662 1475,-1475 0,-814 -662,-1476 -1475,-1476z"/>
  <polygon class="fil2" points="314,1538 289,1544 282,1518 324,1506 345,1506 345,1653 314,1653 "/>
  <path class="fil2" d="M382 1612c0,-18 8,-28 24,-35 -12,-7 -18,-16 -18,-32l0 -1c0,-22 21,-40 51,-40 31,0 51,18 51,40l0 1c0,15 -7,25 -18,32 15,8 24,17 24,35l0 1c0,27 -24,43 -56,43 -32,0 -58,-18 -58,-43zm81 -2l0 0c0,-12 -11,-18 -25,-18 -15,0 -25,7 -25,18 0,10 9,18 25,18 16,0 25,-8 25,-18zm-4 -61l0 0c0,-9 -8,-18 -21,-18 -13,0 -21,8 -21,17l0 1c0,10 8,18 21,18 12,0 21,-8 21,-18z"/>
  <path class="fil2" d="M2700 1592c-8,6 -17,10 -30,10 -31,0 -52,-18 -52,-47l0 -1c0,-29 23,-51 56,-51 20,0 31,5 42,16 11,11 17,26 17,55l0 1c0,48 -22,80 -64,80 -22,0 -35,-7 -48,-18l17 -25c11,8 20,12 32,12 22,0 28,-21 30,-33zm1 -38l0 0c0,-13 -9,-23 -25,-23 -16,0 -25,9 -25,22l0 1c0,13 10,22 25,22 15,-1 25,-10 25,-22z"/>
  <path class="fil2" d="M2836 1621l-71 0 -5 -23 80 -93 27 0 0 90 20 0 0 26 -20 0 0 31 -31 0 0 -31 1 0zm0 -26l0 0 0 -45 -39 45 39 0z"/>
  <path class="fil1" d="M1572 2486c-504,0 -914,-410 -914,-914 0,-504 410,-914 914,-914 504,0 914,410 914,914 0,504 -410,914 -914,914zm0 -1793l0 0c-485,0 -880,395 -880,880 0,485 395,880 880,880 485,0 880,-395 880,-880 0,-485 -395,-880 -880,-880z"/>
  <path class="fil3" d="M1555 785c-451,0 -711,59 -711,59 0,0 -104,395 -45,901 25,213 197,669 770,826 573,-156 746,-613 770,-826 59,-507 -45,-901 -45,-901 0,0 -260,-59 -711,-59l-29 0z"/>
  <path class="fil4" d="M2261 1628c-5,154 -29,613 -692,865 -657,-246 -692,-721 -692,-865l1384 0z"/>
  <path class="fil5" d="M2241 1603c18,-381 -47,-689 -47,-689 0,0 -247,-48 -624,-48 -378,0 -629,52 -629,52 0,0 -68,310 -50,684l1350 0 0 1z"/>
  <path class="fil2" d="M1590 2480l-699 -845c-25,174 116,688 699,845z"/>
  <path class="fil2" d="M1099 1629l647 781c65,-31 114,-62 160,-99l-565 -682 -242 0z"/>
  <path class="fil2" d="M1549 1630l478 577c47,-53 87,-101 115,-152l-352 -425 -242 0z"/>
  <path class="fil2" d="M2250 1630l-239 -1 200 242c35,-74 38,-200 38,-241z"/>
  <path class="fil0" d="M1852 1946c-2,-5 -6,-10 -12,-12l-40 -14c-4,-2 -7,-1 -11,0 -3,-14 -11,-26 -22,-35 -2,-1 -3,-2 -5,-3 -2,-2 -5,-3 -8,-5 -5,-2 -11,-4 -15,-5 -12,-4 -23,-8 -38,-18 -14,-10 -20,-19 -26,-28 -2,-2 -3,-4 -5,-6 -4,-6 -9,-12 -15,-16 -10,-7 -22,-11 -35,-11 -3,0 -5,1 -8,1l0 -1c1,-5 -1,-10 -3,-14l-25 -33c-4,-5 -9,-8 -15,-8 -6,0 -12,2 -15,7l-26 33c-3,4 -5,9 -4,15 -2,0 -4,-1 -6,-1 -12,0 -25,4 -35,11 -2,1 -3,2 -4,3 -2,2 -5,4 -7,7 -4,5 -7,8 -10,13 -8,10 -14,19 -29,30 -14,10 -25,13 -35,16 -2,1 -5,2 -7,2 -7,2 -14,5 -20,9 -12,8 -20,22 -23,36 -4,-2 -8,-2 -13,-1l-39 13c-5,2 -10,6 -12,12 -2,5 -1,12 2,16l24 35c3,4 7,6 12,8 -6,13 -8,29 -3,43 1,2 2,3 2,5 1,3 2,6 5,9 3,5 6,9 9,13 8,10 15,19 20,37 5,16 5,27 5,38l0 8c-1,8 0,15 3,21 5,14 15,25 26,32 -2,3 -3,6 -2,9l0 41c0,6 3,12 8,15 5,3 11,5 16,3l41 -12c4,-1 6,-4 8,-6 12,12 29,17 45,16 3,0 6,-1 10,-2 5,-2 11,-3 15,-5 12,-4 23,-8 41,-8 17,0 27,4 38,7 2,1 5,2 7,2 7,3 15,4 22,4 15,0 29,-6 40,-16 2,3 5,5 8,6l40 12c5,2 12,1 17,-2 5,-3 8,-8 8,-15l1 -41c0,-3 -1,-6 -2,-9 12,-7 22,-18 26,-32 1,-2 1,-3 2,-5 1,-3 2,-6 2,-10 1,-5 1,-11 1,-16 0,-12 0,-24 5,-41 5,-16 12,-25 18,-33 2,-2 3,-4 5,-6 5,-5 8,-12 11,-19 5,-15 3,-31 -4,-45 4,-2 7,-3 9,-6l25 -34c4,-4 5,-9 3,-15l0 0z"/>
  <path class="fil6" d="M1548 2036c0,-13 11,-23 24,-23 13,0 24,11 24,23 0,13 -11,23 -24,23 -13,0 -24,-11 -24,-23z"/>
  <path class="fil7" d="M1571 1838c-4,-15 -13,-27 -25,-34l25 -31 23 31c-12,8 -19,19 -23,34zm-188 137l0 0c-12,-8 -21,-19 -25,-32l-37 12 22 32c11,-8 25,-12 40,-12zm73 217l0 0c-12,9 -25,14 -39,14l0 39 38 -12c-5,-12 -5,-27 1,-41zm230 1l0 0c5,14 5,28 1,41l38 12 1 -39c-13,1 -27,-4 -39,-13zm71 -217l0 0c15,-1 28,3 39,12l23 -31 -38 -13c-3,12 -12,25 -25,33zm-234 218l0 0c-18,0 -31,-14 -31,-31 0,-2 -2,-3 -4,-2 -12,14 -20,26 -21,41 -1,21 18,39 40,39l4 0c2,0 4,0 7,-1 15,-4 29,-12 55,-12 22,0 34,6 45,9 5,2 10,3 15,3 22,0 40,-18 40,-39 0,-15 -9,-27 -21,-41 -1,-2 -3,0 -3,2 0,17 -15,31 -31,31 -13,0 -30,-12 -47,-12 -15,0 -35,12 -48,12zm-21 -43l0 0c0,15 12,26 26,26 2,0 3,0 5,-1 1,0 2,0 2,-1l1 0c9,-3 18,-7 34,-7 16,0 24,5 33,7 3,1 6,2 9,2 15,0 26,-12 26,-26 0,-4 -1,-8 -2,-11 -1,-2 -2,-3 -2,-4 0,0 -45,-61 -46,-62 -2,-3 -5,-2 -7,-1 -2,1 -8,2 -12,2 -4,0 -8,-1 -11,-2 -3,-2 -5,-2 -7,1 -2,2 -34,46 -44,60 -4,5 -6,10 -6,17l0 0zm205 -20l0 0c-5,17 -23,25 -40,20 -2,-1 -4,1 -2,3 10,15 18,27 33,32 21,7 44,-5 50,-25 1,-2 1,-2 1,-4 1,-2 1,-4 2,-6 2,-16 -2,-31 6,-56 7,-21 16,-30 23,-40 3,-4 6,-8 8,-13 7,-21 -5,-44 -25,-50 -15,-5 -29,1 -46,7 -2,1 -2,2 1,3 17,5 26,23 21,40 -4,12 -20,25 -25,41 -5,13 0,35 -5,48zm-48 6l0 0c14,5 29,-3 34,-17 1,-2 1,-3 1,-5l0 -3c0,-9 -2,-19 3,-34 5,-15 12,-22 17,-29 2,-2 3,-5 5,-8 5,-14 -3,-28 -17,-33 -4,-1 -8,-2 -11,-1 -2,0 -3,0 -5,1 0,0 -72,23 -74,24 -3,2 -3,5 -3,6 0,2 -1,8 -2,12 -1,3 -3,8 -5,10 -2,2 -4,5 -2,7 2,2 33,46 44,60 4,5 9,9 15,12zm43 -201l0 0c15,10 18,30 7,44 -2,2 0,4 2,3 18,-5 31,-9 41,-22 13,-18 9,-42 -8,-55 -1,-1 -2,-2 -4,-2 -2,-2 -3,-2 -6,-3 -15,-6 -30,-8 -51,-23 -18,-13 -24,-25 -31,-35 -2,-4 -6,-8 -11,-12 -18,-13 -43,-9 -55,8 -8,12 -8,28 -8,45 0,2 2,2 3,0 10,-14 30,-17 45,-7 11,8 18,27 31,36 12,12 35,14 46,22zm-8 48l0 0c8,-12 6,-28 -6,-37 -1,-1 -2,-2 -5,-3 -1,0 -2,-1 -2,-1l-1 0c-9,-3 -18,-5 -31,-14 -13,-9 -17,-18 -22,-25 -2,-2 -4,-5 -6,-7 -12,-8 -28,-6 -37,6 -2,3 -4,6 -5,10 0,2 -1,3 -1,5l0 78c0,4 3,4 5,5 2,1 8,3 10,5 3,2 6,5 8,8 2,2 3,5 6,3 3,-2 55,-18 71,-23 7,-1 12,-5 16,-9zm-179 -103l0 0c14,-10 34,-7 45,7 2,2 4,2 4,-1 1,-18 1,-33 -8,-45 -12,-18 -38,-22 -55,-8 -2,1 -2,2 -3,2 -2,1 -3,2 -5,5 -11,12 -17,26 -38,41 -18,13 -31,15 -42,18 -5,2 -10,3 -14,6 -18,13 -22,38 -8,55 9,12 24,17 41,22 2,1 2,-2 2,-3 -10,-14 -7,-34 7,-44 11,-8 31,-8 45,-18 11,-8 21,-29 31,-37zm43 23l0 0c-8,-12 -25,-15 -37,-6 -2,1 -2,2 -4,3l-2 2c-5,8 -10,16 -23,25 -13,9 -22,10 -31,14 -3,1 -6,2 -8,4 -12,8 -15,25 -6,37 2,3 5,5 8,7 2,1 2,2 4,2 0,0 72,23 74,24 4,1 5,-2 6,-3 2,-2 5,-6 8,-8 3,-2 7,-4 10,-5 3,-1 5,-2 5,-5l0 -74c1,-5 -1,-12 -5,-17zm-154 137l0 0c-5,-17 4,-35 20,-40 2,-1 2,-3 1,-4 -17,-6 -31,-12 -45,-7 -21,6 -32,29 -25,50 0,2 1,2 2,4 1,2 2,4 3,6 8,14 20,24 28,49 7,21 5,34 5,46 -1,5 0,10 2,15 7,21 29,32 50,25 15,-5 23,-17 33,-32 1,-2 -1,-3 -2,-2 -17,5 -35,-4 -40,-20 -4,-12 2,-31 -4,-48 -5,-15 -22,-31 -26,-43zm35 -33l0 0c-14,5 -22,19 -17,33 0,2 1,3 2,5 1,1 1,2 2,2 0,0 0,1 1,1 5,8 12,15 18,29 5,15 3,24 4,33 0,3 0,6 2,9 5,14 19,21 33,17 4,-1 7,-3 9,-5 1,-1 2,-2 3,-3 0,0 45,-61 45,-63 2,-3 0,-5 -2,-7 -2,-2 -5,-6 -5,-10 -1,-3 -2,-8 -2,-11 0,-3 0,-5 -3,-6 -3,-1 -55,-18 -71,-23 -6,-2 -12,-2 -19,0z"/>
  <path class="fil6" d="M1792 1224l162 -56c0,0 -14,68 -10,120 5,68 44,119 44,119l-200 69 4 -252z"/>
  <path class="fil8" d="M1988 1407c0,0 -35,-51 -41,-110 -5,-45 0,-83 8,-129 -7,31 -33,117 -106,198 -29,32 -42,61 -48,81l-3 -382c0,0 -38,14 -42,15 -5,2 -7,5 -7,5 0,2 -2,4 -5,5 -3,1 -25,9 -41,14 -3,1 -2,4 0,4 18,-1 45,-3 47,-3 4,-1 5,-2 5,-5l0 -1c1,-3 3,-5 6,-5 2,0 16,-2 25,-3l-4 411 18 0 0 -29 187 -65z"/>
  <path class="fil6" d="M1270 1486c0,0 -30,-22 -38,-64 -8,-43 13,-68 13,-68l197 -68c0,0 -12,39 -1,84 15,56 45,94 45,94 0,0 -72,-14 -142,-5 -66,8 -73,27 -73,27z"/>
  <path class="fil6" d="M1044 1437c0,0 25,-67 96,-140 55,-55 90,-71 90,-71 0,0 -31,45 -45,120 -8,46 1,104 1,104 0,0 -37,-8 -79,-12 -35,-4 -63,-1 -63,-1z"/>
  <path class="fil8" d="M1230 1226c0,0 -31,45 -44,120 -8,46 1,104 1,104 0,0 -9,-2 -31,-7 -88,-20 74,-217 74,-217z"/>
  <path class="fil8" d="M1345 1280l-2 -177c-4,2 -38,13 -42,15 -5,2 -7,5 -7,6 0,2 -2,4 -5,5 -3,1 -25,8 -41,14 -3,1 -2,4 0,4 18,-1 45,-3 47,-3 4,-1 5,-2 6,-5l0 -1c1,-3 3,-5 6,-5 2,0 15,-2 25,-2l-2 150 14 0 0 -1z"/>
  <path class="fil8" d="M1574 1120l14 0 0 -170c0,0 -38,14 -42,15 -5,2 -7,5 -7,5 0,2 -2,4 -5,5 -3,1 -25,8 -41,14 -3,1 -2,4 0,4 18,-1 45,-3 47,-3 4,-1 5,-2 6,-5 1,-3 3,-5 6,-5 2,0 15,-2 24,-2l-2 143z"/>
  <path class="fil6" d="M1539 990l1 0c4,-1 5,-2 5,-5 0,-2 2,-4 4,-5l-5 -15c-5,2 -6,5 -6,5 0,2 -2,3 -4,4l5 15z"/>
  <path class="fil6" d="M1295 1142l1 0c4,-1 5,-2 5,-5 1,-2 2,-4 4,-5l-5 -15c-5,2 -6,5 -6,5 0,2 -2,3 -4,4l5 15z"/>
  <path class="fil6" d="M1748 1104l1 0c4,-1 5,-2 5,-5 1,-2 2,-4 4,-5l-5 -15c-5,2 -6,5 -6,5 0,2 -2,3 -4,4l5 15z"/>
  <path class="fil8" d="M1485 1464c0,0 -31,-46 -44,-95 -11,-42 0,-82 0,-82 0,0 -21,72 -71,111 -35,28 -120,53 -100,88 3,-5 12,-14 46,-22 4,-1 8,-2 13,-2l0 58 18 0 0 -61c64,-7 137,5 137,5z"/>
  <path class="fil6" d="M1249 1342c0,0 -23,-14 -20,-58 3,-46 26,-66 26,-68l153 -52c0,0 -12,23 -3,58 9,41 36,65 36,65 0,0 -77,1 -146,25 -34,12 -46,31 -46,31z"/>
  <path class="fil8" d="M1340 1246c44,-36 68,-82 68,-82 0,0 -6,29 -2,55 8,45 35,68 35,68 0,0 -62,1 -129,20 -45,12 -58,30 -62,36 -15,-34 46,-60 91,-97z"/>
  <path class="fil6" d="M1514 1498c0,0 -42,-31 -52,-91 -8,-47 23,-81 23,-81l239 -82c0,0 -13,53 -1,104 14,57 66,127 66,127 0,0 -99,-28 -185,-18 -82,11 -90,40 -90,40z"/>
  <path class="fil6" d="M1466 1119c-2,-36 24,-65 25,-67l171 -60c0,0 -12,27 -8,50 5,44 30,67 30,67 0,0 -68,-4 -147,24 -44,15 -48,36 -48,36 0,0 -21,-5 -22,-50z"/>
  <path class="fil8" d="M1601 1073c31,-27 61,-80 61,-80 0,0 -12,27 -8,50 5,44 30,67 30,67 0,0 -73,-1 -143,24 -30,11 -49,27 -51,36 -10,-34 70,-60 112,-97z"/>
  <path class="fil6" d="M1490 1317c0,0 -25,-28 -29,-73 -5,-46 22,-64 25,-66l198 -68c0,0 -5,15 -1,55 5,34 38,80 38,80 0,0 -106,3 -171,28 -41,16 -59,45 -59,45z"/>
  <path class="fil8" d="M1622 1202c43,-37 62,-92 62,-92 0,0 -5,31 0,56 10,43 41,79 41,79 0,0 -92,2 -159,24 -44,15 -71,41 -74,48 -10,-38 88,-78 131,-115z"/>
  <path class="fil8" d="M1793 1479c0,0 -54,-70 -70,-131 -10,-41 -2,-87 1,-103 -6,22 -28,91 -81,141 -51,47 -150,69 -129,113 4,-7 15,-24 56,-34l-1 56 19 0 0 -60c88,-14 204,18 204,18z"/>
  <path class="fil9" d="M1885 1611c12,-2 25,-5 43,-10 -1,-1 -2,-2 -3,-2 -20,-22 -17,-46 -5,-58 45,-41 44,-72 44,-72 0,0 -108,22 -251,30 -9,1 -42,15 -52,15 -20,1 -40,2 -61,2 -269,2 -345,-17 -433,-33 -90,-17 -129,-35 -129,-35l-3 9c0,0 71,28 121,52 11,5 53,68 67,90l-320 0c-18,-367 53,-667 53,-667 0,0 245,-52 613,-52l0 -39c-391,0 -651,55 -651,55 0,0 -114,401 -54,878 25,199 190,571 703,744l22 -31 -22 -31c-484,-162 -625,-490 -650,-676 -5,-41 -9,-83 -12,-123l664 0 0 -56 -341 0c8,-25 31,-31 61,-24 31,8 61,15 91,14 73,-4 62,-23 69,-23 75,5 104,23 169,21 60,-1 81,-17 86,-17 73,-1 101,33 174,39l6 0z"/>
  <path class="fil10" d="M2220 896c0,0 -260,-55 -650,-55l0 39c369,0 613,52 613,52 0,0 71,300 53,667l-321 0c-25,-25 -11,-57 -2,-64 38,-34 38,-57 38,-57 0,0 -87,22 -230,28 -9,0 -49,18 -59,18 -20,1 -48,2 -68,2 -186,0 -277,-4 -438,-38 3,4 5,5 8,10 1,2 71,19 71,21 11,15 25,25 41,34 26,14 64,25 96,28 73,5 59,-23 66,-23 74,-2 123,25 188,25 60,-1 61,-20 68,-20 59,-3 119,22 170,39l-293 0 0 56 662 0c-3,41 -7,81 -12,123 -25,187 -166,514 -650,676l0 63c514,-173 679,-544 703,-744 61,-478 -53,-878 -53,-878z"/>
  <polygon class="fil0" points="370,1069 397,1017 518,1009 457,904 484,853 699,967 675,1013 534,940 594,1049 593,1050 471,1062 610,1136 586,1182 "/>
  <path class="fil0" d="M617 685l34 -36 250 92 -38 41 -55 -21 -71 75 25 54 -38 40 -107 -244zm144 58l0 0 -80 -31 35 78 45 -47z"/>
  <polygon class="fil0" points="810,508 852,482 1028,551 950,423 996,395 1122,603 1083,627 901,556 982,689 937,716 "/>
  <path class="fil0" d="M1138 465c-19,-68 15,-137 87,-157 44,-13 75,-5 103,9l-22 48c-23,-12 -44,-16 -68,-9 -39,12 -58,52 -47,93l0 1c12,40 49,65 89,54 27,-8 40,-23 54,-45l42 24c-17,33 -39,57 -84,70 -68,20 -135,-18 -154,-86z"/>
  <polygon class="fil0" points="1430,269 1483,268 1486,365 1585,362 1582,266 1636,264 1642,508 1589,510 1586,412 1487,415 1490,512 1436,514 "/>
  <path class="fil0" d="M1952 541l45 -22c12,25 28,46 54,58 20,9 35,7 41,-6l0 -1c6,-12 1,-22 -31,-48 -39,-32 -62,-58 -42,-101l0 -1c18,-40 63,-51 108,-31 32,15 55,38 69,66l-42 25c-13,-23 -29,-40 -48,-48 -18,-8 -32,-5 -38,6l0 1c-7,15 1,24 35,51 39,32 58,61 39,99l0 1c-20,44 -65,53 -113,31 -32,-17 -61,-45 -77,-81z"/>
  <polygon class="fil0" points="2308,556 2249,511 2279,471 2439,593 2409,633 2350,588 2233,742 2190,710 "/>
  <path class="fil0" d="M2693 902l50 100c14,28 17,53 10,74 -6,18 -20,33 -41,44l-1 0c-35,18 -67,10 -91,-13l-51 92 -28 -56 46 -82 -19 -38 -70 35 -24 -48 220 -109zm-58 150l0 0c12,23 31,31 49,22l1 0c21,-10 24,-30 12,-53l-24 -48 -62 31 24 48z"/>
  <polygon class="fil0" points="1789,433 1879,452 1904,409 1800,386 1810,338 1937,365 1948,319 1767,280 1716,518 1898,558 1908,511 1778,483 "/>
  <polygon class="fil0" points="2513,666 2326,823 2445,965 2481,934 2397,833 2436,800 2496,871 2544,855 2473,769 2511,738 2594,838 2631,807 "/>
  <path class="fil0" d="M1159 2746c0,-71 53,-129 130,-129 47,0 74,15 98,38l-35 40c-19,-18 -38,-28 -64,-28 -42,0 -72,35 -72,78l0 1c0,42 29,78 72,78 28,0 46,-12 65,-29l35 35c-25,28 -54,45 -102,45 -73,-2 -127,-58 -127,-129z"/>
  <polygon class="fil0" points="1441,2620 1496,2620 1496,2868 1441,2868 "/>
  <polygon class="fil0" points="1623,2671 1547,2671 1547,2620 1753,2620 1753,2671 1678,2671 1678,2869 1623,2869 "/>
  <polygon class="fil0" points="1871,2771 1776,2620 1840,2620 1899,2720 1959,2620 2021,2620 1926,2769 1926,2868 1871,2868 "/>
 </g>
</svg>
